<?xml version="1.0" encoding="UTF-8" standalone="no"?>
<!-- Created with Inkscape (http://www.inkscape.org/) -->

<svg
   version="1.1"
   id="svg2"
   width="200"
   height="74.861473"
   viewBox="0 0 200 74.861473"
   sodipodi:docname="LogoMarcaRegistrada.svg"
   inkscape:version="1.3 (0e150ed6c4, 2023-07-21)"
   inkscape:export-filename="../a5bf389/logo.png"
   inkscape:export-xdpi="800"
   inkscape:export-ydpi="800"
   xmlns:inkscape="http://www.inkscape.org/namespaces/inkscape"
   xmlns:sodipodi="http://sodipodi.sourceforge.net/DTD/sodipodi-0.dtd"
   xmlns:xlink="http://www.w3.org/1999/xlink"
   xmlns="http://www.w3.org/2000/svg"
   xmlns:svg="http://www.w3.org/2000/svg"
   xmlns:rdf="http://www.w3.org/1999/02/22-rdf-syntax-ns#"
   xmlns:cc="http://creativecommons.org/ns#"
   xmlns:dc="http://purl.org/dc/elements/1.1/">
  <metadata
     id="metadata8">
    <rdf:RDF>
      <cc:Work
         rdf:about="">
        <dc:format>image/svg+xml</dc:format>
        <dc:type
           rdf:resource="http://purl.org/dc/dcmitype/StillImage" />
      </cc:Work>
    </rdf:RDF>
  </metadata>
  <defs
     id="defs6">
    <linearGradient
       id="linearGradient3"
       inkscape:collect="always">
      <stop
         style="stop-color:#4da4ea;stop-opacity:1;"
         offset="0"
         id="stop3" />
      <stop
         style="stop-color:#4da4ea;stop-opacity:0;"
         offset="1"
         id="stop4" />
    </linearGradient>
    <rect
       x="22.252594"
       y="24.080109"
       width="78.638809"
       height="34.847008"
       id="rect5467" />
    <rect
       x="199.7019"
       y="76.987625"
       width="35.82827"
       height="34.513634"
       id="rect14346" />
    <linearGradient
       inkscape:collect="always"
       id="linearGradient4708">
      <stop
         style="stop-color:#000002;stop-opacity:1;"
         offset="0"
         id="stop4704" />
      <stop
         style="stop-color:#000002;stop-opacity:0;"
         offset="1"
         id="stop4706" />
    </linearGradient>
    <linearGradient
       inkscape:collect="always"
       id="linearGradient4698">
      <stop
         style="stop-color:#000000;stop-opacity:1;"
         offset="0"
         id="stop4694" />
      <stop
         style="stop-color:#000000;stop-opacity:0;"
         offset="1"
         id="stop4696" />
    </linearGradient>
    <radialGradient
       inkscape:collect="always"
       xlink:href="#linearGradient4698"
       id="radialGradient4702"
       cx="153.27457"
       cy="94.698296"
       fx="153.27457"
       fy="94.698296"
       r="41.7733"
       gradientTransform="matrix(1,0,0,0.14371222,0,81.088993)"
       gradientUnits="userSpaceOnUse" />
    <linearGradient
       inkscape:collect="always"
       xlink:href="#linearGradient4708"
       id="linearGradient4716"
       x1="112.00127"
       y1="94.698296"
       x2="194.54787"
       y2="94.698296"
       gradientUnits="userSpaceOnUse" />
    <linearGradient
       inkscape:collect="always"
       xlink:href="#linearGradient3"
       id="linearGradient4"
       x1="123.87868"
       y1="50.706966"
       x2="130.839"
       y2="50.706966"
       gradientUnits="userSpaceOnUse" />
  </defs>
  <sodipodi:namedview
     pagecolor="#ffffff"
     bordercolor="#666666"
     borderopacity="1"
     objecttolerance="10"
     gridtolerance="10"
     guidetolerance="10"
     inkscape:pageopacity="0"
     inkscape:pageshadow="2"
     inkscape:window-width="2560"
     inkscape:window-height="1009"
     id="namedview4"
     showgrid="false"
     inkscape:zoom="8.1944447"
     inkscape:cx="106.65762"
     inkscape:cy="43.016948"
     inkscape:window-x="1272"
     inkscape:window-y="-8"
     inkscape:window-maximized="1"
     inkscape:current-layer="layer4"
     showguides="false"
     inkscape:guide-bbox="true"
     inkscape:lockguides="false"
     inkscape:pagecheckerboard="0"
     inkscape:showpageshadow="2"
     inkscape:deskcolor="#d1d1d1">
    <sodipodi:guide
       position="7.9091613,188.80262"
       orientation="0,1"
       id="guide4539"
       inkscape:locked="false" />
    <sodipodi:guide
       position="9.8075632,185.52356"
       orientation="1,0"
       id="guide4541"
       inkscape:locked="false" />
    <sodipodi:guide
       position="12.094275,181.8562"
       orientation="1,0"
       id="guide4543"
       inkscape:locked="false" />
    <sodipodi:guide
       position="15.632205,169.17142"
       orientation="0,1"
       id="guide4545"
       inkscape:locked="false" />
    <sodipodi:guide
       position="19.213282,144.01759"
       orientation="1,0"
       id="guide4547"
       inkscape:locked="false" />
    <sodipodi:guide
       position="18.220935,140.30708"
       orientation="0,1"
       id="guide4549"
       inkscape:locked="false" />
    <sodipodi:guide
       position="13.647513,137.71835"
       orientation="0,1"
       id="guide4551"
       inkscape:locked="false" />
    <sodipodi:guide
       position="37.067796,186.81634"
       orientation="0,1"
       id="guide4553"
       inkscape:locked="false" />
    <sodipodi:guide
       position="36.244067,184.52821"
       orientation="1,0"
       id="guide4555"
       inkscape:locked="false" />
    <sodipodi:guide
       position="33.040677,170.89092"
       orientation="1,0"
       id="guide4557"
       inkscape:locked="false" />
    <sodipodi:guide
       position="34.871185,173.3316"
       orientation="0,1"
       id="guide4559"
       inkscape:locked="false" />
    <sodipodi:guide
       position="41.522033,172.44685"
       orientation="1,0"
       id="guide4561"
       inkscape:locked="false" />
    <sodipodi:guide
       position="44.927998,171.24241"
       orientation="1,0"
       id="guide4571"
       inkscape:locked="false" />
    <sodipodi:guide
       position="221.56567,169.17142"
       orientation="1,0"
       id="guide4619"
       inkscape:locked="false" />
    <sodipodi:guide
       position="85.916221,188.80262"
       orientation="0,-1"
       id="guide63101"
       inkscape:locked="false" />
  </sodipodi:namedview>
  <g
     inkscape:groupmode="layer"
     id="layer6"
     inkscape:label="Fundo"
     style="display:inline"
     transform="matrix(1.3333333,0,0,1.3333333,0.65084742,-60.098011)">
    <rect
       style="display:inline;fill:#444444;fill-opacity:1;stroke:none;stroke-width:14.912;stroke-linecap:round;stroke-dasharray:1.49119, 1.49119;stroke-opacity:1"
       id="rect4656"
       width="150"
       height="56.146107"
       x="-0.48813558"
       y="45.073509" />
  </g>
  <g
     inkscape:groupmode="layer"
     id="layer2"
     inkscape:label="Logo"
     style="display:inline"
     sodipodi:insensitive="true"
     transform="matrix(0.85895663,0,0,0.85895663,0.41928729,-60.329571)">
    <path
       style="fill:#ffffff;fill-opacity:1;stroke:none;stroke-width:1px;stroke-linecap:butt;stroke-linejoin:miter;stroke-opacity:1"
       d="M 9.3203125,88.623047 V 139.70898 H 44.439453 V 88.623047 Z m 26.4355465,1.986328 -17.03125,46.509765 -7.11914,-28.86328 z M 32.552734,104.0957 h 8.480469 v 33.02344 h -8.480469 z"
       id="path4573"
       inkscape:connector-curvature="0" />
  </g>
  <g
     inkscape:groupmode="layer"
     id="layer4"
     inkscape:label="Letras"
     style="display:inline"
     transform="translate(0.48813556,-45.073508)">
    <g
       aria-label="Editora"
       style="font-style:normal;font-variant:normal;font-weight:bold;font-stretch:normal;font-size:17.3333px;line-height:1.25;font-family:Coolvetica;-inkscape-font-specification:'Coolvetica Bold';letter-spacing:0px;word-spacing:0px;display:inline;fill:#ffffff;fill-opacity:1;stroke:none;stroke-opacity:1"
       id="text4601"
       transform="matrix(0.85895663,0,0,0.85895663,-0.06884829,-15.256063)">
      <path
         d="m 119.51406,90.794847 h -5.668 v 2.270667 h 5.21733 v 1.872 h -5.21733 v 2.756 h 5.928 v 1.889334 h -8.09467 V 88.922847 h 7.83467 z"
         style="letter-spacing:5.9px;fill:#ffffff;fill-opacity:1;stroke:none;stroke-opacity:1"
         id="path861"
         inkscape:connector-curvature="0" />
      <path
         d="m 129.83404,93.256181 q -1.78533,0 -1.78533,2.444 0,1.057333 0.48533,1.716 0.48533,0.641333 1.28267,0.641333 0.38133,0 0.71066,-0.156 0.32934,-0.173333 0.572,-0.468 0.24267,-0.312 0.364,-0.710667 0.13867,-0.416 0.13867,-0.901333 0,-2.565333 -1.768,-2.565333 z m 3.744,6.326667 h -2.01067 l -0.0347,-0.970667 q -0.71067,1.178667 -2.184,1.178667 -0.86667,0 -1.508,-0.329334 -0.64134,-0.346666 -1.07467,-0.918666 -0.416,-0.589334 -0.64133,-1.352 -0.208,-0.762667 -0.208,-1.629334 0,-0.901333 0.22533,-1.646667 0.22533,-0.762666 0.64133,-1.3 0.43334,-0.537333 1.04,-0.832 0.60667,-0.312 1.36934,-0.312 1.43866,0 2.30533,1.248 v -3.917333 h 2.08 z"
         style="letter-spacing:5.9px;fill:#ffffff;fill-opacity:1;stroke:none;stroke-opacity:1"
         id="path863"
         inkscape:connector-curvature="0" />
      <path
         d="m 142.39003,99.582848 h -2.08 v -7.904001 h 2.08 z m 0,-8.840001 h -2.08 v -1.941333 h 2.08 z"
         style="letter-spacing:5.9px;fill:#ffffff;fill-opacity:1;stroke:none;stroke-opacity:1"
         id="path865"
         inkscape:connector-curvature="0" />
      <path
         d="m 155.48335,93.169514 h -4.35067 v 3.258667 q 0,0.745333 0.27733,1.161333 0.27734,0.398667 0.91867,0.398667 0.624,0 0.91867,-0.398667 0.29466,-0.398666 0.29466,-1.144 v -2.062667 h 1.94134 v 2.270667 q 0,0.624 -0.19067,1.196 -0.17333,0.572 -0.572,1.005334 -0.38133,0.433333 -0.988,0.693333 -0.60667,0.26 -1.43867,0.26 -0.86666,0 -1.47333,-0.26 -0.60667,-0.26 -1.00533,-0.693333 -0.38134,-0.433334 -0.572,-1.005334 -0.17334,-0.572 -0.17334,-1.213333 v -7.089334 h 2.06267 v 2.132 h 4.35067 z"
         style="letter-spacing:5.9px;fill:#ffffff;fill-opacity:1;stroke:none;stroke-opacity:1"
         id="path867"
         inkscape:connector-curvature="0" />
      <path
         d="m 166.098,93.238847 q -1.90666,0 -1.90666,2.392 0,2.409334 1.90666,2.409334 1.90667,0 1.90667,-2.409334 0,-2.392 -1.90667,-2.392 z m 0,-1.768 q 0.936,0 1.68134,0.294667 0.74533,0.294667 1.26533,0.849333 0.52,0.537334 0.79733,1.317334 0.27734,0.762666 0.27734,1.698666 0,0.936 -0.29467,1.716001 -0.27733,0.762666 -0.79733,1.317333 -0.52,0.537333 -1.26534,0.832 -0.74533,0.294667 -1.664,0.294667 -0.95333,0 -1.716,-0.294667 -0.74533,-0.312 -1.26533,-0.849333 -0.52,-0.554667 -0.79733,-1.317334 -0.27734,-0.78 -0.27734,-1.698667 0,-0.936 0.27734,-1.698666 0.29466,-0.762667 0.81466,-1.3 0.52,-0.554667 1.26534,-0.849334 0.76266,-0.312 1.69866,-0.312 z"
         style="letter-spacing:5.9px;fill:#ffffff;fill-opacity:1;stroke:none;stroke-opacity:1"
         id="path869"
         inkscape:connector-curvature="0" />
      <path
         d="m 181.25399,93.620181 q -0.29466,-0.052 -0.572,-0.052 -1.924,0 -1.924,1.906666 v 4.108001 h -2.08 v -7.904001 h 1.95867 v 0.953334 q 0.26,-0.398667 0.53733,-0.624 0.27734,-0.225334 0.572,-0.346667 0.29467,-0.121333 0.60667,-0.138667 0.312,-0.03467 0.624,-0.03467 h 0.27733 z"
         style="letter-spacing:5.9px;fill:#ffffff;fill-opacity:1;stroke:none;stroke-opacity:1"
         id="path871"
         inkscape:connector-curvature="0" />
      <path
         d="m 192.14599,95.717514 q -0.312,0.26 -1.092,0.416 -1.07467,0.208 -1.456,0.502667 -0.38133,0.277333 -0.38133,0.78 0,0.884 0.936,0.884 0.39866,0 0.76266,-0.104 0.38134,-0.121333 0.65867,-0.346667 0.27733,-0.225333 0.43333,-0.572 0.17334,-0.346667 0.17334,-0.797333 0,-0.138667 -0.0173,-0.381334 0,-0.242666 -0.0173,-0.381333 z m -1.28267,-4.246667 q 1.68134,0 2.51334,0.797334 0.84933,0.797333 0.84933,2.322666 v 4.992001 h -1.94133 q -0.0347,-0.138667 -0.0693,-0.294667 -0.0347,-0.156 -0.052,-0.346667 -0.38133,0.398667 -0.988,0.606667 -0.60666,0.190667 -1.404,0.190667 -1.196,0 -1.924,-0.589334 -0.71066,-0.589333 -0.71066,-1.629333 0,-0.814667 0.26,-1.3 0.27733,-0.485334 0.76266,-0.762667 0.48534,-0.277333 1.144,-0.416 0.676,-0.138667 1.456,-0.242667 0.624,-0.08667 0.97067,-0.277333 0.364,-0.190667 0.364,-0.537333 0,-0.450667 -0.416,-0.676 -0.416,-0.225334 -0.91867,-0.225334 -0.55466,0 -0.936,0.329334 -0.364,0.312 -0.43333,0.849333 h -1.99333 q 0.104,-1.317333 0.90133,-2.045333 0.79733,-0.745334 2.56533,-0.745334 z"
         style="letter-spacing:5.9px;fill:#ffffff;fill-opacity:1;stroke:none;stroke-opacity:1"
         id="path873"
         inkscape:connector-curvature="0" />
    </g>
    <flowRoot
       xml:space="preserve"
       id="flowRoot4603"
       style="font-style:normal;font-variant:normal;font-weight:bold;font-stretch:normal;font-size:82.6667px;line-height:1.25;font-family:Coolvetica;-inkscape-font-specification:'Coolvetica Bold';letter-spacing:14.85px;word-spacing:0px;display:inline;fill:#000000;fill-opacity:1;stroke:none"><flowRegion
         id="flowRegion4605"
         style="font-size:82.6667px"><rect
           id="rect4607"
           width="51.429432"
           height="51.084267"
           x="53.155254"
           y="88.623894"
           style="font-size:82.66666412px" /></flowRegion><flowPara
         id="flowPara4609">M</flowPara></flowRoot>
    <g
       aria-label="M"
       transform="matrix(0.85677812,0,0,0.86114075,-0.06884829,-15.256063)"
       style="font-style:normal;font-variant:normal;font-weight:bold;font-stretch:normal;font-size:17.3774px;line-height:1.25;font-family:Coolvetica;-inkscape-font-specification:'Coolvetica Bold';letter-spacing:14.8878px;word-spacing:0px;display:inline;fill:#fffffe;fill-opacity:1;stroke:none;stroke-width:1.00254"
       id="text4613">
      <path
         d="M 103.39852,139.39468 H 93.370418 v -34.89115 l -9.530839,34.89115 H 73.314218 l -9.447962,-34.7254 v 34.7254 H 53.921032 V 88.425414 h 15.663727 l 9.116455,37.377466 h 0.165754 l 9.116454,-37.377466 h 15.415098 z"
         style="font-size:82.8769px;line-height:0;letter-spacing:0px;fill:#fffffe;fill-opacity:1;stroke-width:1.00254"
         id="path858"
         inkscape:connector-curvature="0" />
    </g>
    <g
       aria-label="oan"
       transform="matrix(0.91885724,0,0,0.80296095,-0.06884829,-15.256063)"
       style="font-style:normal;font-variant:normal;font-weight:bold;font-stretch:normal;font-size:77.2776px;line-height:1.25;font-family:Coolvetica;-inkscape-font-specification:'Coolvetica Bold';letter-spacing:13.8819px;word-spacing:0px;display:inline;fill:#ffffff;fill-opacity:1;stroke:none;stroke-width:0.93481"
       id="text4617">
      <path
         d="m 117.25428,121.39348 q -8.50054,0 -8.50054,10.66431 0,10.74158 8.50054,10.74158 8.50053,0 8.50053,-10.74158 0,-10.66431 -8.50053,-10.66431 z m 0,-7.88232 q 4.17299,0 7.49592,1.31372 3.32294,1.31372 5.64127,3.7866 2.31832,2.39561 3.55477,5.8731 1.23644,3.40022 1.23644,7.57321 0,4.17299 -1.31372,7.65048 -1.23644,3.40021 -3.55477,5.8731 -2.31833,2.3956 -5.64127,3.70932 -3.32293,1.31372 -7.41864,1.31372 -4.25027,0 -7.65049,-1.31372 -3.32293,-1.391 -5.64126,-3.7866 -2.31833,-2.47288 -3.55477,-5.8731 -1.236442,-3.47749 -1.236442,-7.5732 0,-4.17299 1.236442,-7.57321 1.31372,-3.40021 3.63205,-5.79582 2.31832,-2.47288 5.64126,-3.7866 3.40022,-1.391 7.57321,-1.391 z"
         style="letter-spacing:0.93481px;fill:#ffffff;fill-opacity:1;stroke-width:0.93481"
         id="path876"
         inkscape:connector-curvature="0" />
      <path
         d="m 160.45989,132.44417 q -1.391,1.15917 -4.86849,1.85467 -4.79121,0.92733 -6.49132,2.24105 -1.7001,1.23644 -1.7001,3.47749 0,3.94116 4.17299,3.94116 1.77738,0 3.40021,-0.46367 1.70011,-0.54094 2.93655,-1.54555 1.23644,-1.00461 1.93194,-2.55016 0.77277,-1.54555 0.77277,-3.55477 0,-0.61822 -0.0773,-1.70011 0,-1.08188 -0.0773,-1.70011 z m -5.71854,-18.93301 q 7.49592,0 11.20525,3.55477 3.7866,3.55477 3.7866,10.3552 v 22.25595 h -8.65509 q -0.15455,-0.61822 -0.30911,-1.31372 -0.15456,-0.6955 -0.23183,-1.54555 -1.70011,1.77738 -4.40483,2.70471 -2.70471,0.85006 -6.25948,0.85006 -5.33216,0 -8.57781,-2.62744 -3.16839,-2.62744 -3.16839,-7.2641 0,-3.63204 1.15917,-5.79582 1.23644,-2.16377 3.40021,-3.40021 2.16378,-1.23644 5.10032,-1.85466 3.01383,-0.61822 6.49132,-1.08189 2.782,-0.38639 4.32755,-1.23644 1.62283,-0.85005 1.62283,-2.39561 0,-2.00921 -1.85467,-3.01382 -1.85466,-1.00461 -4.09571,-1.00461 -2.47288,0 -4.17299,1.46827 -1.62283,1.391 -1.93194,3.78661 h -8.88692 q 0.46366,-5.8731 4.01843,-9.11876 3.55477,-3.32294 11.43709,-3.32294 z"
         style="letter-spacing:0.93481px;fill:#ffffff;fill-opacity:1;stroke-width:0.93481"
         id="path878"
         inkscape:connector-curvature="0" />
      <path
         d="m 183.26424,119.61609 q 1.62283,-2.93655 4.32754,-4.4821 2.782,-1.62283 7.03226,-1.62283 2.55016,0 4.63666,0.77278 2.16377,0.77278 3.70932,2.24105 1.54556,1.46827 2.39561,3.70932 0.92733,2.16378 0.92733,5.02305 v 24.41972 h -9.35059 v -21.32862 q 0,-4.09571 -1.39099,-5.48671 -1.31372,-1.46827 -4.63666,-1.46827 -7.26409,0 -7.26409,8.11415 v 20.16945 h -9.27332 v -35.23859 h 8.88693 z"
         style="letter-spacing:0.93481px;fill:#ffffff;fill-opacity:1;stroke-width:0.93481"
         id="path880"
         inkscape:connector-curvature="0" />
    </g>
    <g
       id="g4"
       transform="matrix(1.3333333,0,0,1.3333333,-0.32542371,-17.302469)">
      <text
         xml:space="preserve"
         style="font-style:normal;font-variant:normal;font-weight:normal;font-stretch:normal;font-size:7.68856px;font-family:'Source Sans Pro';-inkscape-font-specification:'Source Sans Pro';fill:#4da4ea;fill-opacity:1;stroke:none;stroke-width:0.523016"
         x="132.30461"
         y="62.970558"
         id="text3"><tspan
           sodipodi:role="line"
           id="tspan3"
           x="132.30461"
           y="62.970558"
           style="font-style:normal;font-variant:normal;font-weight:bold;font-stretch:normal;font-family:'Source Sans Pro';-inkscape-font-specification:'Source Sans Pro Bold';fill:#4da4ea;fill-opacity:1;stroke:none;stroke-width:0.523016">R</tspan></text>
      <circle
         style="fill:none;fill-opacity:1;stroke:#4da4ea;stroke-width:0.907;stroke-opacity:1"
         id="path4"
         cx="134.6644"
         cy="60.632828"
         r="5.4305081" />
    </g>
  </g>
</svg>
